<?xml version="1.0" encoding="UTF-8" standalone="no"?>
<!-- Created with Inkscape (http://www.inkscape.org/) -->

<svg
   xmlns:dc="http://purl.org/dc/elements/1.1/"
   xmlns:cc="http://creativecommons.org/ns#"
   xmlns:rdf="http://www.w3.org/1999/02/22-rdf-syntax-ns#"
   xmlns:svg="http://www.w3.org/2000/svg"
   xmlns="http://www.w3.org/2000/svg"
   xmlns:sodipodi="http://sodipodi.sourceforge.net/DTD/sodipodi-0.dtd"
   xmlns:inkscape="http://www.inkscape.org/namespaces/inkscape"
   id="svg2"
   version="1.1"
   inkscape:version="0.48.4 r9939"
   width="350.23737"
   height="115.90058"
   xml:space="preserve"
   sodipodi:docname="scala-turkiye.svg"><metadata
     id="metadata8"><rdf:RDF><cc:Work
         rdf:about=""><dc:format>image/svg+xml</dc:format><dc:type
           rdf:resource="http://purl.org/dc/dcmitype/StillImage" /><dc:title></dc:title></cc:Work></rdf:RDF></metadata><defs
     id="defs6"><clipPath
       clipPathUnits="userSpaceOnUse"
       id="clipPath18"><path
         d="m 289.917,440.253 c 0,0 -135.059,28.361 -172.559,67.986 0,0 1.5,-39.457 12.552,-82.616 0,0 106.514,-11.182 157.78,6.232 l 2.227,8.398"
         id="path20"
         inkscape:connector-curvature="0" /></clipPath><linearGradient
       x1="0"
       y1="0"
       x2="1"
       y2="0"
       gradientUnits="userSpaceOnUse"
       gradientTransform="matrix(-152.574,5.0515,5.0515,152.574,303.165,460.229)"
       spreadMethod="pad"
       id="linearGradient24"><stop
         style="stop-opacity:1;stop-color:#680b10"
         offset="0"
         id="stop26" /><stop
         style="stop-opacity:1;stop-color:#231f20"
         offset="1"
         id="stop28" /></linearGradient><clipPath
       clipPathUnits="userSpaceOnUse"
       id="clipPath36"><path
         d="m 270.76,387.452 c 0,0 -119.972,9.835 -139.14,32.367 l 15.36,-42.198 c 0,0 65.455,-17.014 110.997,-13.819 l 12.783,23.65"
         id="path38"
         inkscape:connector-curvature="0" /></clipPath><linearGradient
       x1="0"
       y1="0"
       x2="1"
       y2="0"
       gradientUnits="userSpaceOnUse"
       gradientTransform="matrix(-122.377,4.0518,4.0518,122.377,280.89,388.501)"
       spreadMethod="pad"
       id="linearGradient42"><stop
         style="stop-opacity:1;stop-color:#680b10"
         offset="0"
         id="stop44" /><stop
         style="stop-opacity:1;stop-color:#231f20"
         offset="1"
         id="stop46" /></linearGradient><clipPath
       clipPathUnits="userSpaceOnUse"
       id="clipPath54"><path
         d="m 168.963,332.698 c 30.08,10.364 60.157,20.728 90.233,31.091 4.445,8.018 8.57,16.164 12.336,24.398 -23.801,-5.466 -78.248,-17.268 -119.968,-21.024 5.297,-11.633 11.115,-23.142 17.399,-34.465"
         id="path56"
         inkscape:connector-curvature="0" /></clipPath><linearGradient
       x1="0"
       y1="0"
       x2="1"
       y2="0"
       gradientUnits="userSpaceOnUse"
       gradientTransform="matrix(120.876,9.7677,9.7677,-120.876,140.784,354.021)"
       spreadMethod="pad"
       id="linearGradient60"><stop
         style="stop-opacity:1;stop-color:#ed1e29"
         offset="0"
         id="stop62" /><stop
         style="stop-opacity:1;stop-color:#231f20"
         offset="1"
         id="stop64" /></linearGradient><clipPath
       clipPathUnits="userSpaceOnUse"
       id="clipPath72"><path
         d="m 131.62,419.819 c 4.276,-14.157 9.43,-28.256 15.36,-42.198 40.916,11.282 104.788,31.23 140.71,54.234 0.789,2.798 1.537,5.595 2.227,8.398 C 257.758,430.59 179.218,409.676 131.62,419.819"
         id="path74"
         inkscape:connector-curvature="0" /></clipPath><linearGradient
       x1="0"
       y1="0"
       x2="1"
       y2="0"
       gradientUnits="userSpaceOnUse"
       gradientTransform="matrix(182.508,43.997,43.997,-182.508,146.965,400.567)"
       spreadMethod="pad"
       id="linearGradient78"><stop
         style="stop-opacity:1;stop-color:#ed1e29"
         offset="0"
         id="stop80" /><stop
         style="stop-opacity:1;stop-color:#231f20"
         offset="1"
         id="stop82" /></linearGradient><clipPath
       clipPathUnits="userSpaceOnUse"
       id="clipPath90"><path
         d="m 117.358,508.239 c 0.244,-27.234 4.699,-55.008 12.552,-82.616 28.773,9.308 120.149,40.236 166.598,71.968 -0.103,3.922 -0.343,7.828 -0.701,11.711 -39.193,-7.25 -128.037,-20.301 -178.449,-1.063"
         id="path92"
         inkscape:connector-curvature="0" /></clipPath><linearGradient
       x1="0"
       y1="0"
       x2="1"
       y2="0"
       gradientUnits="userSpaceOnUse"
       gradientTransform="matrix(171.103,8.5551,8.5551,-171.103,143.864,467.941)"
       spreadMethod="pad"
       id="linearGradient96"><stop
         style="stop-opacity:1;stop-color:#ed1e29"
         offset="0"
         id="stop98" /><stop
         style="stop-opacity:1;stop-color:#231f20"
         offset="1"
         id="stop100" /></linearGradient></defs><sodipodi:namedview
     pagecolor="#ffffff"
     bordercolor="#666666"
     borderopacity="1"
     objecttolerance="10"
     gridtolerance="10"
     guidetolerance="10"
     inkscape:pageopacity="0"
     inkscape:pageshadow="2"
     inkscape:window-width="1287"
     inkscape:window-height="719"
     id="namedview4"
     showgrid="false"
     inkscape:zoom="0.89691211"
     inkscape:cx="-84.481388"
     inkscape:cy="-147.15498"
     inkscape:window-x="0"
     inkscape:window-y="25"
     inkscape:window-maximized="1"
     inkscape:current-layer="g10"
     fit-margin-top="0"
     fit-margin-left="0"
     fit-margin-right="0"
     fit-margin-bottom="0" /><g
     id="g10"
     inkscape:groupmode="layer"
     inkscape:label="logo"
     transform="matrix(1.25,0,0,-1.25,-5.4949694,1044.5724)"><g
       id="g14"
       transform="matrix(0.52501904,0,0,0.52501904,-57.219209,568.26471)"><g
         id="g16"
         clip-path="url(#clipPath18)"><g
           id="g22"><path
             d="m 289.917,440.253 c 0,0 -135.059,28.361 -172.559,67.986 0,0 1.5,-39.457 12.552,-82.616 0,0 106.514,-11.182 157.78,6.232 l 2.227,8.398"
             style="fill:url(#linearGradient24);stroke:none"
             id="path30"
             inkscape:connector-curvature="0" /></g></g></g><g
       id="g32"
       transform="matrix(0.52501904,0,0,0.52501904,-57.219209,568.26471)"><g
         id="g34"
         clip-path="url(#clipPath36)"><g
           id="g40"><path
             d="m 270.76,387.452 c 0,0 -119.972,9.835 -139.14,32.367 l 15.36,-42.198 c 0,0 65.455,-17.014 110.997,-13.819 l 12.783,23.65"
             style="fill:url(#linearGradient42);stroke:none"
             id="path48"
             inkscape:connector-curvature="0" /></g></g></g><g
       id="g50"
       transform="matrix(0.52501904,0,0,0.52501904,-57.219209,568.26471)"><g
         id="g52"
         clip-path="url(#clipPath54)"><g
           id="g58"><path
             d="m 168.963,332.698 c 30.08,10.364 60.157,20.728 90.233,31.091 4.445,8.018 8.57,16.164 12.336,24.398 -23.801,-5.466 -78.248,-17.268 -119.968,-21.024 5.297,-11.633 11.115,-23.142 17.399,-34.465"
             style="fill:url(#linearGradient60);stroke:none"
             id="path66"
             inkscape:connector-curvature="0" /></g></g></g><g
       id="g68"
       transform="matrix(0.52501904,0,0,0.52501904,-57.219209,568.26471)"><g
         id="g70"
         clip-path="url(#clipPath72)"><g
           id="g76"><path
             d="m 131.62,419.819 c 4.276,-14.157 9.43,-28.256 15.36,-42.198 40.916,11.282 104.788,31.23 140.71,54.234 0.789,2.798 1.537,5.595 2.227,8.398 C 257.758,430.59 179.218,409.676 131.62,419.819"
             style="fill:url(#linearGradient78);stroke:none"
             id="path84"
             inkscape:connector-curvature="0" /></g></g></g><g
       id="g86"
       transform="matrix(0.52501904,0,0,0.52501904,-57.219209,568.26471)"><g
         id="g88"
         clip-path="url(#clipPath90)"><g
           id="g94"><path
             d="m 117.358,508.239 c 0.244,-27.234 4.699,-55.008 12.552,-82.616 28.773,9.308 120.149,40.236 166.598,71.968 -0.103,3.922 -0.343,7.828 -0.701,11.711 -39.193,-7.25 -128.037,-20.301 -178.449,-1.063"
             style="fill:url(#linearGradient96);stroke:none"
             id="path102"
             inkscape:connector-curvature="0" /></g></g></g><g
       id="g104"
       transform="translate(108.80888,777.94142)"><path
         d="m 0,0 0,14.392 c 0.404,-0.048 1.38,-0.214 2.928,-0.5 5.023,-0.928 8.536,-1.393 10.535,-1.393 1.215,0 2.298,0.214 3.25,0.643 1.238,0.57 1.857,1.391 1.857,2.462 0,0.927 -1.213,1.878 -3.642,2.854 l -2.643,1.07 c -4.548,1.831 -7.917,4.079 -10.107,6.743 -1.904,2.284 -2.857,5.102 -2.857,8.457 0,5.256 2.143,9.36 6.428,12.309 3.762,2.616 8.381,3.925 13.857,3.925 4.809,0 9.023,-0.487 12.642,-1.461 l 0,-14.182 c -4.452,1.31 -8.178,1.965 -11.178,1.965 -3.476,0 -5.213,-0.856 -5.213,-2.569 0,-1.047 1.333,-2.105 3.999,-3.175 1.714,-0.69 3.023,-1.262 3.928,-1.714 3.81,-1.927 6.512,-3.794 8.107,-5.6 2.143,-2.379 3.215,-5.388 3.215,-9.028 C 35.106,9.275 32.867,4.91 28.392,2.104 24.7,-0.228 19.701,-1.393 13.392,-1.393 7.393,-1.393 2.928,-0.929 0,0"
         style="fill:#333333;fill-opacity:1;fill-rule:nonzero;stroke:none"
         id="path106"
         inkscape:connector-curvature="0" /></g><g
       id="g108"
       transform="translate(173.76988,800.97542)"><path
         d="m 0,0 c -1.834,1.238 -3.5,1.858 -5,1.858 -1.905,0 -3.476,-0.565 -4.714,-1.692 -1.238,-1.128 -1.857,-2.629 -1.857,-4.505 0,-1.899 0.59,-3.401 1.768,-4.505 1.178,-1.103 2.732,-1.655 4.661,-1.655 2,0 3.737,0.607 5.213,1.821 l 9,-10.654 c -4.191,-3.515 -9.238,-5.273 -15.142,-5.273 -6.119,0 -11.107,1.796 -14.964,5.387 -3.976,3.687 -5.964,8.563 -5.964,14.629 0,5.994 2,10.835 6,14.523 3.88,3.567 8.857,5.351 14.928,5.351 5.523,0 10.512,-1.405 14.964,-4.214 L 0,0"
         style="fill:#333333;fill-opacity:1;fill-rule:nonzero;stroke:none"
         id="path110"
         inkscape:connector-curvature="0" /></g><g
       id="g112"
       transform="translate(198.66188,790.44042)"><path
         d="m 0,0 c 0,-2.333 1.131,-3.5 3.393,-3.5 0.99,0 1.808,0.334 2.456,1 C 6.497,-1.833 6.821,-1 6.821,0 6.821,2.31 5.678,3.464 3.393,3.464 1.131,3.464 0,2.31 0,0 z m -10.963,14.143 2.785,10.213 c 3.214,0.572 5.654,0.953 7.321,1.143 2.238,0.262 4.333,0.393 6.285,0.393 5.476,0 9.416,-0.881 11.822,-2.643 2.833,-2.071 4.249,-5.714 4.249,-10.928 l 0,-24.82 -13.892,-1.071 0,4.214 c -3.238,-2.81 -6.619,-4.214 -10.142,-4.214 -3.81,0 -6.906,1.261 -9.286,3.785 -2.357,2.452 -3.536,5.595 -3.536,9.429 0,3.808 1.31,6.856 3.929,9.141 2.5,2.191 5.679,3.286 9.535,3.286 3.095,0 6,-0.892 8.714,-2.678 l 0,2.178 c 0,3.118 -2.298,4.678 -6.893,4.678 -3.094,0 -6.725,-0.702 -10.891,-2.106"
         style="fill:#333333;fill-opacity:1;fill-rule:nonzero;stroke:none"
         id="path114"
         inkscape:connector-curvature="0" /></g><g
       id="g116"
       transform="translate(241.98188,778.22642)"><path
         d="m 0,0 -14.75,-1.535 0,52.676 L 0,52.462 0,0"
         style="fill:#333333;fill-opacity:1;fill-rule:nonzero;stroke:none"
         id="path118"
         inkscape:connector-curvature="0" /></g><g
       id="g120"
       transform="translate(263.08688,790.44042)"><path
         d="m 0,0 c 0,-2.333 1.13,-3.5 3.393,-3.5 0.989,0 1.808,0.334 2.456,1 C 6.497,-1.833 6.821,-1 6.821,0 6.821,2.31 5.678,3.464 3.393,3.464 1.13,3.464 0,2.31 0,0 z m -10.963,14.143 2.785,10.213 c 3.214,0.572 5.654,0.953 7.321,1.143 2.237,0.262 4.333,0.393 6.285,0.393 5.476,0 9.416,-0.881 11.822,-2.643 2.833,-2.071 4.249,-5.714 4.249,-10.928 l 0,-24.82 -13.892,-1.071 0,4.214 c -3.238,-2.81 -6.619,-4.214 -10.143,-4.214 -3.809,0 -6.905,1.261 -9.285,3.785 -2.357,2.452 -3.536,5.595 -3.536,9.429 0,3.808 1.31,6.856 3.929,9.141 2.5,2.191 5.678,3.286 9.535,3.286 3.095,0 6,-0.892 8.714,-2.678 l 0,2.178 c 0,3.118 -2.298,4.678 -6.893,4.678 -3.095,0 -6.725,-0.702 -10.891,-2.106"
         style="fill:#333333;fill-opacity:1;fill-rule:nonzero;stroke:none"
         id="path122"
         inkscape:connector-curvature="0" /></g><g
       id="g124"
       transform="translate(112.80888,769.23842)"><path
         d="M 0,0 -6.031,0 C -6.217,0 -6.335,0.035 -6.387,0.107 -6.438,0.18 -6.464,0.308 -6.464,0.494 l 0,1.516 c 0,0.165 0.026,0.288 0.077,0.371 0.052,0.082 0.17,0.124 0.356,0.124 l 15.154,0 C 9.309,2.505 9.427,2.463 9.479,2.381 9.529,2.298 9.556,2.175 9.556,2.01 l 0,-1.516 C 9.556,0.308 9.529,0.18 9.479,0.107 9.427,0.035 9.309,0 9.123,0 l -6.217,0 0,-18.618 c 0,-0.227 -0.041,-0.371 -0.123,-0.433 C 2.7,-19.112 2.556,-19.144 2.35,-19.144 l -1.763,0 c -0.206,0 -0.355,0.032 -0.448,0.093 C 0.046,-18.989 0,-18.845 0,-18.618 L 0,0"
         style="fill:#333333;fill-opacity:1;fill-rule:nonzero;stroke:none"
         id="path126"
         inkscape:connector-curvature="0" /></g><g
       id="g128"
       transform="translate(134.51888,770.81542)"><path
         d="m 0,0 c 0,-0.434 -0.176,-0.82 -0.526,-1.16 -0.351,-0.34 -0.732,-0.51 -1.144,-0.51 -0.454,0 -0.85,0.17 -1.191,0.51 -0.34,0.34 -0.51,0.726 -0.51,1.16 0,0.412 0.17,0.788 0.51,1.129 0.341,0.34 0.727,0.51 1.16,0.51 0.433,0 0.824,-0.165 1.175,-0.495 C -0.176,0.814 0,0.433 0,0 z m -5.598,0 c 0,-0.434 -0.175,-0.82 -0.526,-1.16 -0.35,-0.34 -0.731,-0.51 -1.143,-0.51 -0.434,0 -0.826,0.17 -1.176,0.51 -0.351,0.34 -0.526,0.726 -0.526,1.16 0,0.412 0.175,0.788 0.526,1.129 0.35,0.34 0.742,0.51 1.176,0.51 0.412,0 0.793,-0.17 1.143,-0.51 C -5.773,0.788 -5.598,0.412 -5.598,0 z m -5.66,-4.948 c 0,0.206 0.041,0.335 0.124,0.387 0.082,0.05 0.206,0.077 0.371,0.077 l 1.702,0 c 0.165,0 0.288,-0.027 0.371,-0.077 0.082,-0.052 0.124,-0.181 0.124,-0.387 l 0,-8.258 c 0,-0.928 0.061,-1.736 0.185,-2.428 0.123,-0.69 0.356,-1.262 0.696,-1.716 0.339,-0.454 0.824,-0.789 1.454,-1.004 0.628,-0.217 1.447,-0.326 2.458,-0.326 0.226,0 0.603,0.016 1.129,0.047 0.525,0.03 1.128,0.098 1.809,0.2 l 0,13.485 c 0,0.206 0.035,0.335 0.108,0.387 0.072,0.05 0.201,0.077 0.386,0.077 l 1.701,0 c 0.166,0 0.289,-0.027 0.372,-0.077 0.082,-0.052 0.124,-0.181 0.124,-0.387 l 0,-13.515 c 0,-1.305 -0.65,-2.079 -1.949,-2.323 -0.289,-0.04 -0.608,-0.075 -0.959,-0.107 -0.35,-0.03 -0.701,-0.055 -1.051,-0.076 -0.351,-0.02 -0.691,-0.035 -1.021,-0.046 -0.33,-0.009 -0.618,-0.015 -0.866,-0.015 -1.34,0 -2.469,0.137 -3.386,0.412 -0.918,0.274 -1.665,0.713 -2.242,1.314 -0.577,0.602 -0.995,1.392 -1.253,2.371 -0.258,0.98 -0.387,2.17 -0.387,3.573 l 0,8.412"
         style="fill:#333333;fill-opacity:1;fill-rule:nonzero;stroke:none"
         id="path130"
         inkscape:connector-curvature="0" /></g><g
       id="g132"
       transform="translate(150.13588,762.55742)"><path
         d="m 0,0 c -0.103,-0.144 -0.191,-0.201 -0.262,-0.17 -0.073,0.032 -0.161,0.077 -0.263,0.14 -0.578,0.557 -1.237,0.984 -1.98,1.283 -0.742,0.299 -1.546,0.448 -2.412,0.448 -0.578,0 -1.186,-0.061 -1.825,-0.185 l 0,-13.515 c 0,-0.206 -0.042,-0.335 -0.125,-0.387 -0.084,-0.051 -0.209,-0.077 -0.375,-0.077 l -1.721,0 c -0.168,0 -0.287,0.026 -0.36,0.077 -0.073,0.052 -0.109,0.181 -0.109,0.387 l 0,13.608 c 0,0.742 0.125,1.288 0.376,1.638 0.25,0.351 0.771,0.588 1.563,0.712 0.417,0.041 0.821,0.077 1.214,0.109 0.393,0.03 0.784,0.046 1.177,0.046 1.216,0 2.34,-0.166 3.37,-0.496 C -0.701,3.289 0.247,2.742 1.114,1.98 1.279,1.815 1.288,1.65 1.145,1.485 L 0,0"
         style="fill:#333333;fill-opacity:1;fill-rule:nonzero;stroke:none"
         id="path134"
         inkscape:connector-curvature="0" /></g><g
       id="g136"
       transform="translate(156.04388,758.62942)"><path
         d="m 0,0 6.247,7.454 c 0.061,0.083 0.128,0.144 0.2,0.185 0.072,0.042 0.19,0.063 0.356,0.063 l 2.381,0 c 0.103,0 0.17,-0.047 0.201,-0.14 C 9.417,7.469 9.401,7.392 9.338,7.331 L 5.195,2.351 9.988,-8.195 c 0.041,-0.061 0.052,-0.134 0.031,-0.216 -0.02,-0.083 -0.113,-0.124 -0.278,-0.124 l -2.01,0 c -0.33,0 -0.537,0.114 -0.619,0.34 l -3.773,8.381 -3.463,-3.989 0,-4.268 c 0,-0.206 -0.037,-0.335 -0.109,-0.387 -0.072,-0.051 -0.201,-0.077 -0.387,-0.077 l -1.701,0 c -0.165,0 -0.288,0.026 -0.371,0.077 -0.082,0.052 -0.123,0.181 -0.123,0.387 l 0,21.679 c 0,0.206 0.041,0.335 0.123,0.387 0.083,0.051 0.206,0.077 0.371,0.077 l 1.701,0 c 0.186,0 0.315,-0.026 0.387,-0.077 0.072,-0.052 0.109,-0.181 0.109,-0.387 l 0,-13.545 L 0,0"
         style="fill:#333333;fill-opacity:1;fill-rule:nonzero;stroke:none"
         id="path138"
         inkscape:connector-curvature="0" /></g><g
       id="g140"
       transform="translate(171.84488,750.55842)"><path
         d="M 0,0 C 0,-0.206 -0.036,-0.335 -0.108,-0.387 -0.18,-0.438 -0.309,-0.464 -0.495,-0.464 l -1.67,0 c -0.165,0 -0.294,0.026 -0.386,0.077 C -2.644,-0.335 -2.69,-0.206 -2.69,0 l 0,15.309 c 0,0.206 0.046,0.335 0.139,0.387 0.092,0.05 0.221,0.077 0.386,0.077 l 1.67,0 c 0.186,0 0.315,-0.027 0.387,-0.077 C -0.036,15.644 0,15.515 0,15.309 L 0,0 z m 0.495,20.102 c 0,-0.494 -0.175,-0.917 -0.526,-1.268 -0.351,-0.35 -0.772,-0.525 -1.268,-0.525 -0.495,0 -0.922,0.175 -1.283,0.525 -0.361,0.351 -0.542,0.774 -0.542,1.268 0,0.515 0.181,0.948 0.542,1.299 0.361,0.35 0.788,0.526 1.283,0.526 0.496,0 0.917,-0.176 1.268,-0.526 0.351,-0.351 0.526,-0.784 0.526,-1.299"
         style="fill:#333333;fill-opacity:1;fill-rule:nonzero;stroke:none"
         id="path142"
         inkscape:connector-curvature="0" /></g><g
       id="g144"
       transform="translate(183.10188,747.43542)"><path
         d="m 0,0 c -0.474,-1.423 -1.082,-2.413 -1.824,-2.97 -0.742,-0.556 -1.691,-0.835 -2.846,-0.835 -0.289,0 -0.649,0.022 -1.082,0.063 -0.433,0.041 -0.907,0.134 -1.423,0.278 -0.33,0.082 -0.454,0.247 -0.371,0.494 l 0.34,1.362 c 0.041,0.165 0.104,0.262 0.186,0.294 0.083,0.03 0.196,0.025 0.34,-0.016 0.392,-0.103 0.685,-0.17 0.881,-0.201 0.197,-0.031 0.428,-0.047 0.697,-0.047 0.7,0 1.267,0.14 1.701,0.418 0.432,0.278 0.783,0.83 1.051,1.654 0.02,0.063 0.072,0.207 0.155,0.434 0.082,0.226 0.17,0.469 0.263,0.726 0.092,0.258 0.174,0.5 0.247,0.727 0.072,0.228 0.118,0.371 0.139,0.433 l -0.588,0 c -0.289,0 -0.541,0.047 -0.757,0.139 -0.217,0.093 -0.408,0.407 -0.573,0.944 l -4.762,14.658 c -0.062,0.227 0.031,0.341 0.278,0.341 l 2.072,0 c 0.227,0 0.371,-0.104 0.433,-0.31 0.042,-0.144 0.129,-0.428 0.263,-0.85 0.134,-0.423 0.294,-0.917 0.48,-1.485 0.185,-0.567 0.381,-1.175 0.587,-1.824 0.206,-0.65 0.402,-1.258 0.588,-1.825 0.185,-0.568 0.344,-1.067 0.479,-1.5 0.134,-0.433 0.221,-0.711 0.263,-0.835 l 1.577,-5.443 0.186,0 c 0.061,0.165 0.185,0.537 0.371,1.114 0.185,0.577 0.376,1.19 0.572,1.839 0.195,0.65 0.381,1.238 0.557,1.763 0.174,0.527 0.273,0.809 0.294,0.851 0.02,0.041 0.086,0.232 0.201,0.572 0.112,0.34 0.257,0.768 0.432,1.283 0.175,0.516 0.367,1.077 0.573,1.686 0.206,0.608 0.406,1.211 0.602,1.809 0.196,0.598 0.382,1.149 0.557,1.655 0.176,0.505 0.314,0.901 0.418,1.19 0.061,0.206 0.206,0.31 0.432,0.31 l 1.98,0 c 0.247,0 0.34,-0.114 0.278,-0.341 L 0,0"
         style="fill:#333333;fill-opacity:1;fill-rule:nonzero;stroke:none"
         id="path146"
         inkscape:connector-curvature="0" /></g><g
       id="g148"
       transform="translate(202.46188,759.58842)"><path
         d="M 0,0 C 0,0.639 -0.063,1.253 -0.187,1.84 -0.311,2.428 -0.534,2.944 -0.854,3.387 -1.175,3.831 -1.61,4.18 -2.158,4.439 -2.707,4.696 -3.394,4.825 -4.221,4.825 -4.905,4.825 -5.509,4.691 -6.038,4.423 -6.565,4.155 -7.01,3.799 -7.372,3.356 -7.735,2.913 -8.019,2.402 -8.226,1.826 -8.433,1.248 -8.557,0.639 -8.598,0 L 0,0 z m -4.238,7.083 c 1.176,0 2.191,-0.166 3.047,-0.496 C -0.335,6.258 0.366,5.789 0.912,5.181 1.458,4.573 1.865,3.851 2.133,3.016 2.401,2.181 2.536,1.258 2.536,0.248 2.536,-0.247 2.473,-0.649 2.35,-0.959 2.226,-1.267 2.056,-1.51 1.839,-1.685 1.624,-1.86 1.375,-1.984 1.097,-2.056 0.819,-2.128 0.525,-2.165 0.216,-2.165 l -8.907,0 c 0,-0.968 0.135,-1.793 0.403,-2.473 0.269,-0.681 0.626,-1.233 1.072,-1.654 0.444,-0.423 0.962,-0.728 1.551,-0.914 0.589,-0.185 1.226,-0.278 1.91,-0.278 0.681,0 1.354,0.088 2.016,0.264 0.662,0.175 1.211,0.376 1.646,0.602 0.247,0.145 0.443,0.093 0.588,-0.154 L 1.144,-8.071 C 1.288,-8.36 1.226,-8.566 0.958,-8.69 0.216,-9.143 -0.584,-9.447 -1.439,-9.602 c -0.855,-0.154 -1.695,-0.232 -2.52,-0.232 -1.155,0 -2.191,0.166 -3.108,0.495 -0.918,0.33 -1.696,0.835 -2.335,1.515 -0.64,0.681 -1.129,1.546 -1.469,2.598 -0.34,1.052 -0.51,2.309 -0.51,3.773 0,1.361 0.18,2.572 0.541,3.634 0.36,1.062 0.861,1.953 1.5,2.675 0.638,0.722 1.391,1.272 2.257,1.654 0.867,0.382 1.814,0.573 2.845,0.573"
         style="fill:#333333;fill-opacity:1;fill-rule:nonzero;stroke:none"
         id="path150"
         inkscape:connector-curvature="0" /></g></g></svg>